<?xml version="1.0" encoding="UTF-8" standalone="no"?>
<!-- Created with Inkscape (http://www.inkscape.org/) -->

<svg
   xmlns:dc="http://purl.org/dc/elements/1.1/"
   xmlns:cc="http://creativecommons.org/ns#"
   xmlns:rdf="http://www.w3.org/1999/02/22-rdf-syntax-ns#"
   xmlns:svg="http://www.w3.org/2000/svg"
   xmlns="http://www.w3.org/2000/svg"
   xmlns:sodipodi="http://sodipodi.sourceforge.net/DTD/sodipodi-0.dtd"
   xmlns:inkscape="http://www.inkscape.org/namespaces/inkscape"
   width="512"
   height="512"
   viewBox="0 0 512.00001 512.00001"
   id="svg9018"
   version="1.1"
   inkscape:version="0.91 r13725"
   sodipodi:docname="toolbot_white.svg">
  <defs
     id="defs9020" />
  <sodipodi:namedview
     id="base"
     pagecolor="#ffffff"
     bordercolor="#666666"
     borderopacity="1.0"
     inkscape:pageopacity="0.0"
     inkscape:pageshadow="2"
     inkscape:zoom="0.70710678"
     inkscape:cx="193.39835"
     inkscape:cy="256.12186"
     inkscape:document-units="px"
     inkscape:current-layer="layer1"
     showgrid="false"
     units="px"
     inkscape:window-width="1280"
     inkscape:window-height="937"
     inkscape:window-x="1366"
     inkscape:window-y="24"
     inkscape:window-maximized="1"
     showguides="false" />
  <metadata
     id="metadata9023">
    <rdf:RDF>
      <cc:Work
         rdf:about="">
        <dc:format>image/svg+xml</dc:format>
        <dc:type
           rdf:resource="http://purl.org/dc/dcmitype/StillImage" />
        <dc:title></dc:title>
      </cc:Work>
    </rdf:RDF>
  </metadata>
  <g
     inkscape:label="Capa 1"
     inkscape:groupmode="layer"
     id="layer1"
     transform="translate(0,-540.36216)">
    <path
       style="fill:#ffffff;fill-opacity:1"
       d="m 251.46316,540.36247 c -34.6218,0.004 -188.617802,3.65167 -251.4670661,109.48356 l 11.7720891,10.83282 c 0,0 44.305299,-45.11927 107.692187,-45.49074 0,0 117.06735,-4.9864 116.96846,47.21119 l -0.42657,14.48147 10.14182,-8e-5 0,57.07051 -10.9606,4e-5 -10.03779,310.88146 c 0,0 -1.41658,7.6636 6.10232,7.5277 l 81.25734,-0.1857 c 8.14145,0 7.79955,-7.183 7.79955,-7.183 -1.28222,-41.691 -7.73342,-222.76966 -10.17446,-311.75378 l -11.20737,0 -10e-6,-57.0705 10.46878,0 c -0.19418,-8.04088 -0.29348,-13.16351 -0.24082,-13.62982 -1.67985,-43.84677 103.1137,-47.56945 127.18959,-47.03258 16.21593,-0.46069 26.5214,6.928 25.03338,14.29572 0.97151,5.8982 10.46672,11.35594 18.82106,11.35599 l 12.11243,0.004 c 11.29983,-0.46757 19.67224,-8.8061 19.69201,-19.61761 l -0.38936,-53.55867 c -0.47004,-11.30243 -8.42407,-20.19963 -19.23133,-20.22261 l -11.68438,0.017 c -8.2565,6e-5 -17.69971,5.86278 -18.20878,15.19777 -4.43056,4.41385 -12.30099,8.32898 -21.14553,8.31224 -19.65271,-1.01989 -119.23077,-30.78389 -132.00627,-30.80806 l -52.08497,-0.0979 c -1.53561,-0.004 -3.47755,-0.0197 -5.78571,-0.0193 z"
       id="path3059-7-1"
       inkscape:connector-curvature="0"
       sodipodi:nodetypes="ccccccccccccccccccccccccccccsssc" />
  </g>
</svg>
