<?xml version="1.0" encoding="UTF-8" standalone="no"?>
<!-- Created with Inkscape (http://www.inkscape.org/) -->

<svg
   xmlns:dc="http://purl.org/dc/elements/1.1/"
   xmlns:cc="http://creativecommons.org/ns#"
   xmlns:rdf="http://www.w3.org/1999/02/22-rdf-syntax-ns#"
   xmlns:svg="http://www.w3.org/2000/svg"
   xmlns="http://www.w3.org/2000/svg"
   xmlns:xlink="http://www.w3.org/1999/xlink"
   xmlns:sodipodi="http://sodipodi.sourceforge.net/DTD/sodipodi-0.dtd"
   xmlns:inkscape="http://www.inkscape.org/namespaces/inkscape"
   width="512"
   height="512"
   viewBox="0 0 511.99999 511.99999"
   id="svg8270"
   version="1.1"
   inkscape:version="0.91 r13725"
   sodipodi:docname="isotipo.svg">
  <sodipodi:namedview
     id="base"
     pagecolor="#ffffff"
     bordercolor="#666666"
     borderopacity="1.0"
     inkscape:pageopacity="0.0"
     inkscape:pageshadow="2"
     inkscape:zoom="0.56054688"
     inkscape:cx="95.999553"
     inkscape:cy="45.204126"
     inkscape:document-units="px"
     inkscape:current-layer="g8975"
     showgrid="false"
     inkscape:window-width="1280"
     inkscape:window-height="937"
     inkscape:window-x="1366"
     inkscape:window-y="24"
     inkscape:window-maximized="1"
     units="px" />
  <defs
     id="defs8272">
    <linearGradient
       inkscape:collect="always"
       id="linearGradient10390">
      <stop
         style="stop-color:#000000;stop-opacity:1"
         offset="0"
         id="stop10392" />
      <stop
         style="stop-color:#666666;stop-opacity:0.13106796"
         offset="1"
         id="stop10394" />
    </linearGradient>
    <clipPath
       clipPathUnits="userSpaceOnUse"
       id="clipPath5167-5-5">
      <rect
         ry="30.007538"
         y="316.59238"
         x="165.28636"
         height="380.57498"
         width="380.57498"
         id="rect5169-4-6"
         style="opacity:1;fill:#cccccc;fill-opacity:1;stroke:none;stroke-width:0.43801093;stroke-linecap:round;stroke-miterlimit:6.5999999;stroke-dasharray:none;stroke-opacity:1" />
    </clipPath>
    <filter
       inkscape:collect="always"
       style="color-interpolation-filters:sRGB"
       id="filter10378"
       x="-0.043199845"
       width="1.0863997"
       y="-0.043200155"
       height="1.0864003">
      <feGaussianBlur
         inkscape:collect="always"
         stdDeviation="4.821514"
         id="feGaussianBlur10380" />
    </filter>
    <linearGradient
       inkscape:collect="always"
       xlink:href="#linearGradient10390"
       id="linearGradient10396"
       x1="197.97009"
       y1="493.0289"
       x2="564.99817"
       y2="860.05695"
       gradientUnits="userSpaceOnUse" />
  </defs>
  <metadata
     id="metadata8275">
    <rdf:RDF>
      <cc:Work
         rdf:about="">
        <dc:format>image/svg+xml</dc:format>
        <dc:type
           rdf:resource="http://purl.org/dc/dcmitype/StillImage" />
        <dc:title></dc:title>
      </cc:Work>
    </rdf:RDF>
  </metadata>
  <g
     transform="translate(0,-540.36219)"
     id="layer1"
     inkscape:groupmode="layer"
     inkscape:label="Capa 1">
    <g
       transform="matrix(0.73516124,0,0,0.73516124,-28.574429,344.24725)"
       id="g8975">
      <rect
         ry="54.913292"
         y="266.76453"
         x="38.868248"
         height="696.44586"
         width="696.44586"
         id="rect4247-8-2"
         style="opacity:1;fill:#607d8b;fill-opacity:1;stroke:none;stroke-width:0.43801093;stroke-linecap:round;stroke-miterlimit:6.5999999;stroke-dasharray:none;stroke-opacity:1" />
      <g
         clip-path="url(#clipPath5167-5-5)"
         id="g5041-4-2"
         transform="matrix(1.8299833,0,0,1.8299833,-263.60305,-312.59427)">
        <g
           transform="matrix(0.9059412,0,0,0.9059412,210.03875,9.8349659)"
           id="g5500-2-0">
          <g
             id="g10242">
            <g
               id="g10244"
               style="fill:url(#linearGradient10396);fill-opacity:1;opacity:0.262">
              <path
                 id="path10246"
                 d="M158.27285 414.71985C140.1599 414.72185 59.594398 416.63028 26.713788 471.99795L733.820569187 1179.10473119C766.701179187 1123.73706119 847.266681187 1121.82863119 865.379631187 1121.82663119Z"
                 style="fill:url(#linearGradient10396);fill-opacity:1" />
              <path
                 id="path10248"
                 d="M26.713788 471.99795L32.872548 477.6653L739.979329187 1184.77208119L733.820569187 1179.10473119Z"
                 style="fill:url(#linearGradient10396);fill-opacity:1" />
              <path
                 id="path10250"
                 d="M32.872548 477.6653C32.872548 477.6653 56.051578 454.06043 89.213448 453.86609L796.320229187 1160.97287119C763.158359187 1161.16721119 739.979329187 1184.77208119 739.979329187 1184.77208119Z"
                 style="fill:url(#linearGradient10396);fill-opacity:1" />
              <path
                 id="path10252"
                 d="M89.213448 453.86609C89.213448 453.86609 130.753759334 452.096714522 145.383310724 466.726265911L852.490091911 1173.8330471C837.860540521 1159.20349571 796.320229187 1160.97287119 796.320229187 1160.97287119Z"
                 style="fill:url(#linearGradient10396);fill-opacity:1" />
              <path
                 id="path10254"
                 d="M145.383310724 466.726265911C148.517478895 469.860434082 150.416528824 473.747260809 150.4074 478.56539L857.514181187 1185.67217119C857.52331001 1180.854042 855.624260081 1176.96721527 852.490091911 1173.8330471Z"
                 style="fill:url(#linearGradient10396);fill-opacity:1" />
              <path
                 id="path10256"
                 d="M150.4074 478.56539L150.18423 486.1416L857.291011187 1193.24838119L857.514181187 1185.67217119Z"
                 style="fill:url(#linearGradient10396);fill-opacity:1" />
              <path
                 id="path10258"
                 d="M150.18423 486.1416L155.49009 486.14156L862.596871187 1193.24834119L857.291011187 1193.24838119Z"
                 style="fill:url(#linearGradient10396);fill-opacity:1" />
              <path
                 id="path10260"
                 d="M155.49009 486.14156L155.49009 515.99892L862.596871187 1223.10570119L862.596871187 1193.24834119Z"
                 style="fill:url(#linearGradient10396);fill-opacity:1" />
              <path
                 id="path10262"
                 d="M155.49009 515.99892L149.75587 515.99894L856.862651187 1223.10572119L862.596871187 1223.10570119Z"
                 style="fill:url(#linearGradient10396);fill-opacity:1" />
              <path
                 id="path10264"
                 d="M149.75587 515.99894L144.50444 678.6416L851.611221187 1385.74838119L856.862651187 1223.10572119Z"
                 style="fill:url(#linearGradient10396);fill-opacity:1" />
              <path
                 id="path10266"
                 d="M144.50444 678.6416C144.50444 678.6416 144.137680114 680.625738767 145.289615304 681.777673956L852.396396491 1388.88445514C851.244461301 1387.73251995 851.611221187 1385.74838119 851.611221187 1385.74838119Z"
                 style="fill:url(#linearGradient10396);fill-opacity:1" />
              <path
                 id="path10268"
                 d="M145.289615304 681.777673956C145.775169402 682.263228055 146.530553195 682.600922823 147.69697 682.57984L854.803751187 1389.68662119C853.637334382 1389.70770401 852.881950589 1389.37000924 852.396396491 1388.88445514Z"
                 style="fill:url(#linearGradient10396);fill-opacity:1" />
              <path
                 id="path10270"
                 d="M147.69697 682.57984L190.20806 682.48264L897.314841187 1389.58942119L854.803751187 1389.68662119Z"
                 style="fill:url(#linearGradient10396);fill-opacity:1" />
              <path
                 id="path10272"
                 d="M190.20806 682.48264C194.46739 682.48264 194.28851 678.72474 194.28851 678.72474L901.395291187 1385.83152119C901.395291187 1385.83152119 901.574171187 1389.58942119 897.314841187 1389.58942119Z"
                 style="fill:url(#linearGradient10396);fill-opacity:1" />
              <path
                 id="path10274"
                 d="M194.28851 678.72474C193.61771 656.91343 190.24265 562.1792 188.96558 515.62571L896.072361187 1222.73249119C897.349431187 1269.28598119 900.724491187 1364.02021119 901.395291187 1385.83152119Z"
                 style="fill:url(#linearGradient10396);fill-opacity:1" />
              <path
                 id="path10276"
                 d="M188.96558 515.62571L183.10227 515.62571L890.209051187 1222.73249119L896.072361187 1222.73249119Z"
                 style="fill:url(#linearGradient10396);fill-opacity:1" />
              <path
                 id="path10278"
                 d="M183.10227 515.62571L183.10226 485.76836L890.209041187 1192.87514119L890.209051187 1222.73249119Z"
                 style="fill:url(#linearGradient10396);fill-opacity:1" />
              <path
                 id="path10280"
                 d="M183.10226 485.76836L188.57917 485.76836L895.685951187 1192.87514119L890.209041187 1192.87514119Z"
                 style="fill:url(#linearGradient10396);fill-opacity:1" />
              <path
                 id="path10282"
                 d="M188.57917 485.76836C188.47759 481.56165 188.42564 478.88166 188.45319 478.6377L895.559971187 1185.74448119C895.532421187 1185.98844119 895.584371187 1188.66843119 895.685951187 1192.87514119Z"
                 style="fill:url(#linearGradient10396);fill-opacity:1" />
              <path
                 id="path10284"
                 d="M188.45319 478.6377C187.57435 455.69856 242.39878 453.75097 254.99448 454.03185L962.101261187 1161.13863119C949.505561187 1160.85775119 894.681131187 1162.80534119 895.559971187 1185.74448119Z"
                 style="fill:url(#linearGradient10396);fill-opacity:1" />
              <path
                 id="path10286"
                 d="M254.99448 454.03185C260.382583898 453.878773742 264.523390268 455.382171046 266.628393733 457.487174511L973.735174919 1164.5939557C971.630171454 1162.48895223 967.489365085 1160.98555493 962.101261187 1161.13863119Z"
                 style="fill:url(#linearGradient10396);fill-opacity:1" />
              <path
                 id="path10288"
                 d="M266.628393733 457.487174511C267.837737918 458.696518696 268.37514296 460.104429613 268.09109 461.51088L975.197871187 1168.61766119C975.481924147 1167.2112108 974.944519105 1165.80329988 973.735174919 1164.5939557Z"
                 style="fill:url(#linearGradient10396);fill-opacity:1" />
              <path
                 id="path10290"
                 d="M268.09109 461.51088C268.24244296 462.429774655 268.789233228 463.328233743 269.597943782 464.136944298L976.704724969 1171.24372548C975.896014414 1170.43501493 975.349224147 1169.53655584 975.197871187 1168.61766119Z"
                 style="fill:url(#linearGradient10396);fill-opacity:1" />
              <path
                 id="path10292"
                 d="M269.597943782 464.136944298C271.504972817 466.043973333 274.868458381 467.451938934 277.93763 467.45196L985.044411187 1174.55874119C981.975239567 1174.55872012 978.611754004 1173.15075452 976.704724969 1171.24372548Z"
                 style="fill:url(#linearGradient10396);fill-opacity:1" />
              <path
                 id="path10294"
                 d="M277.93763 467.45196L284.27445 467.45396L991.381231187 1174.56074119L985.044411187 1174.55874119Z"
                 style="fill:url(#linearGradient10396);fill-opacity:1" />
              <path
                 id="path10296"
                 d="M284.27445 467.45396C290.18613 467.20934 294.5663 462.8469 294.57664 457.19069L1001.68342119 1164.29747119C1001.67308119 1169.95368119 997.292911187 1174.31612119 991.381231187 1174.56074119Z"
                 style="fill:url(#linearGradient10396);fill-opacity:1" />
              <path
                 id="path10298"
                 d="M294.57664 457.19069L294.37294 429.1706L1001.47972119 1136.27738119L1001.68342119 1164.29747119Z"
                 style="fill:url(#linearGradient10396);fill-opacity:1" />
              <path
                 id="path10300"
                 d="M294.37294 429.1706C294.244493916 426.082043904 293.047824248 423.336795792 291.128175279 421.417146823L998.234956466 1128.52392801C1000.15460543 1130.44357698 1001.3512751 1133.18882509 1001.47972119 1136.27738119Z"
                 style="fill:url(#linearGradient10396);fill-opacity:1" />
              <path
                 id="path10302"
                 d="M291.128175279 421.417146823C289.3726567 419.661628244 287.012503399 418.596566374 284.31176 418.59082L991.418541187 1125.69760119C994.119284585 1125.70334756 996.479437886 1126.76840943 998.234956466 1128.52392801Z"
                 style="fill:url(#linearGradient10396);fill-opacity:1" />
              <path
                 id="path10304"
                 d="M284.31176 418.59082L278.19889 418.59982L985.305671187 1125.70660119L991.418541187 1125.69760119Z"
                 style="fill:url(#linearGradient10396);fill-opacity:1" />
              <path
                 id="path10306"
                 d="M278.19889 418.59982C273.87937 418.59986 268.939 421.66704 268.67267 426.55078L975.779451187 1133.65756119C976.045781187 1128.77382119 980.986151187 1125.70664119 985.305671187 1125.70660119Z"
                 style="fill:url(#linearGradient10396);fill-opacity:1" />
              <path
                 id="path10308"
                 d="M268.67267 426.55078C266.35475 428.85996 262.23721 430.90822 257.61005 430.89947L964.716831187 1138.00625119C969.343991187 1138.01500119 973.461531187 1135.96674119 975.779451187 1133.65756119Z"
                 style="fill:url(#linearGradient10396);fill-opacity:1" />
              <path
                 id="path10310"
                 d="M257.61005 430.89947C247.32841 430.36589 195.23254 414.79438 188.54883 414.78173L895.655611187 1121.88851119C902.339321187 1121.90116119 954.435191187 1137.47267119 964.716831187 1138.00625119Z"
                 style="fill:url(#linearGradient10396);fill-opacity:1" />
              <path
                 id="path10312"
                 d="M188.54883 414.78173L161.29973 414.73053L868.406511187 1121.83731119L895.655611187 1121.88851119Z"
                 style="fill:url(#linearGradient10396);fill-opacity:1" />
              <path
                 id="path10314"
                 d="M161.29973 414.73053C160.49636 414.72853 159.4804 414.72023 158.27285 414.72043L865.379631187 1121.82721119C866.587181187 1121.82701119 867.603141187 1121.83531119 868.406511187 1121.83731119Z"
                 style="fill:url(#linearGradient10396);fill-opacity:1" />
            </g>
            <path
               style="fill:#000000;fill-opacity:0.52912622;filter:url(#filter10378)"
               d="m 158.27285,414.71985 c -18.11295,0.002 -98.678452,1.91043 -131.559062,57.2781 l 6.15876,5.66735 c 0,0 23.17903,-23.60487 56.3409,-23.79921 0,0 61.245692,-2.60871 61.193952,24.6993 l -0.22317,7.57621 5.30586,-4e-5 0,29.85736 -5.73422,2e-5 -6.22175,164.38923 c 0,0 0.22921,4.07403 4.16285,4.00293 l 42.51109,-0.0972 c 4.25933,0 4.88905,-3.82259 4.88905,-3.82259 -0.6708,-21.81131 -4.85446,-118.29211 -6.13153,-164.8456 l -5.86331,0 -1e-5,-29.85735 5.47691,0 c -0.10158,-4.20671 -0.15353,-6.8867 -0.12598,-7.13066 -0.87884,-22.93914 53.94559,-24.88673 66.54129,-24.60585 8.48362,-0.24102 13.87509,3.62449 13.09661,7.47903 0.50826,3.08575 5.47583,5.94105 9.84654,5.94108 l 6.33682,0.002 c 5.91168,-0.24462 10.29185,-4.60706 10.30219,-10.26327 l -0.2037,-28.02009 c -0.24591,-5.91304 -4.40719,-10.56775 -10.06118,-10.57978 l -6.11287,0.009 c -4.31952,4e-5 -9.25989,3.06722 -9.52622,7.95096 -2.31792,2.30918 -6.43546,4.35744 -11.06262,4.34869 -10.28164,-0.53358 -62.37751,-16.10509 -69.06122,-16.11774 l -27.2491,-0.0512 c -0.80337,-0.002 -1.81933,-0.0103 -3.02688,-0.0101 z"
               id="path10368"
               inkscape:connector-curvature="0"
               sodipodi:nodetypes="ccccccccccccccccccccccccccccsssc" />
            <path
               sodipodi:nodetypes="ccccccccccccccccccccccccccccsssc"
               inkscape:connector-curvature="0"
               id="path3059-7-1-4"
               d="m 158.27285,414.71985 c -18.11295,0.002 -98.678452,1.91043 -131.559062,57.2781 l 6.15876,5.66735 c 0,0 23.17903,-23.60487 56.3409,-23.79921 0,0 61.245692,-2.60871 61.193952,24.6993 l -0.22317,7.57621 5.30586,-4e-5 0,29.85736 -5.73422,2e-5 -5.25143,162.64266 c 0,0 -0.74111,4.00934 3.19253,3.93824 l 42.51109,-0.0972 c 4.25933,0 4.08045,-3.7579 4.08045,-3.7579 -0.6708,-21.81131 -4.04586,-116.54554 -5.32293,-163.09903 l -5.86331,0 -1e-5,-29.85735 5.47691,0 c -0.10158,-4.20671 -0.15353,-6.8867 -0.12598,-7.13066 -0.87884,-22.93914 53.94559,-24.88673 66.54129,-24.60585 8.48362,-0.24102 13.87509,3.62449 13.09661,7.47903 0.50826,3.08575 5.47583,5.94105 9.84654,5.94108 l 6.33682,0.002 c 5.91168,-0.24462 10.29185,-4.60706 10.30219,-10.26327 l -0.2037,-28.02009 c -0.24591,-5.91304 -4.40719,-10.56775 -10.06118,-10.57978 l -6.11287,0.009 c -4.31952,4e-5 -9.25989,3.06722 -9.52622,7.95096 -2.31792,2.30918 -6.43546,4.35744 -11.06262,4.34869 -10.28164,-0.53358 -62.37751,-16.10509 -69.06122,-16.11774 l -27.2491,-0.0512 c -0.80337,-0.002 -1.81933,-0.0103 -3.02688,-0.0101 z"
               style="fill:#009688;fill-opacity:1" />
          </g>
        </g>
      </g>
    </g>
  </g>
</svg>
